<?xml version="1.0" encoding="UTF-8" standalone="no"?><!DOCTYPE svg PUBLIC "-//W3C//DTD SVG 1.1//EN" "http://www.w3.org/Graphics/SVG/1.1/DTD/svg11.dtd"><svg width="100%" height="100%" viewBox="0 0 2250 2250" version="1.1" xmlns="http://www.w3.org/2000/svg" xmlns:xlink="http://www.w3.org/1999/xlink" xml:space="preserve" xmlns:serif="http://www.serif.com/" style="fill-rule:evenodd;clip-rule:evenodd;stroke-linejoin:round;stroke-miterlimit:2;"><rect id="Artboard1" x="0" y="0" width="2250" height="2250" style="fill:none;"/><g id="Artboard11" serif:id="Artboard1"><circle cx="1125" cy="1125" r="1125" style="fill:#4d008d;"/><g transform="matrix(0.783612,0,0,0.783612,194.9699,817.729074)"><g transform="matrix(821.941066,0,0,821.941066,46.285725,696.298157)"><rect x="0.227" y="-0.9" width="0.147" height="1.2" style="fill:#fff;fill-rule:nonzero;"/></g><g transform="matrix(1056.781371,0,0,1056.781371,539.450364,696.298157)"><path d="M0.473,-0.531l0,0.377c-0,0.077 -0.014,0.14 -0.043,0.189c-0.028,0.049 -0.071,0.089 -0.127,0.118c-0.056,0.029 -0.126,0.052 -0.208,0.068l-0.025,-0.12c0.054,-0.012 0.099,-0.028 0.135,-0.046c0.036,-0.018 0.064,-0.043 0.082,-0.075c0.019,-0.032 0.028,-0.073 0.028,-0.124l0,-0.279l-0.191,0l0,-0.108l0.349,0Zm-0.103,-0.278c0.027,0 0.05,0.009 0.067,0.026c0.017,0.017 0.026,0.038 0.026,0.064c0,0.025 -0.009,0.047 -0.026,0.064c-0.017,0.017 -0.04,0.026 -0.067,0.026c-0.028,0 -0.05,-0.009 -0.068,-0.026c-0.018,-0.017 -0.026,-0.038 -0.026,-0.064c0,-0.025 0.009,-0.047 0.026,-0.064c0.018,-0.017 0.04,-0.026 0.068,-0.026Z" style="fill:#fff;fill-rule:nonzero;"/></g><g transform="matrix(1056.781371,0,0,1056.781371,1173.519187,696.298157)"><path d="M0.283,-0.096c0.026,-0 0.048,-0.004 0.064,-0.012c0.016,-0.008 0.024,-0.021 0.024,-0.037c0,-0.011 -0.003,-0.021 -0.01,-0.029c-0.006,-0.008 -0.019,-0.015 -0.036,-0.022c-0.018,-0.007 -0.045,-0.015 -0.08,-0.025c-0.032,-0.009 -0.061,-0.02 -0.086,-0.033c-0.025,-0.013 -0.044,-0.03 -0.058,-0.051c-0.014,-0.021 -0.021,-0.047 -0.021,-0.079c0,-0.032 0.009,-0.06 0.026,-0.085c0.018,-0.025 0.044,-0.044 0.078,-0.058c0.034,-0.014 0.076,-0.021 0.126,-0.021c0.047,0 0.089,0.006 0.124,0.018c0.035,0.012 0.066,0.028 0.091,0.046l-0.063,0.093c-0.022,-0.014 -0.046,-0.025 -0.071,-0.033c-0.025,-0.008 -0.051,-0.012 -0.077,-0.012c-0.026,0 -0.045,0.003 -0.057,0.01c-0.012,0.007 -0.019,0.017 -0.019,0.031c0,0.009 0.003,0.017 0.01,0.023c0.006,0.007 0.019,0.013 0.037,0.02c0.018,0.007 0.044,0.015 0.079,0.025c0.034,0.01 0.064,0.021 0.09,0.034c0.026,0.013 0.045,0.03 0.059,0.051c0.014,0.021 0.021,0.049 0.021,0.084c0,0.039 -0.012,0.071 -0.034,0.097c-0.023,0.026 -0.053,0.046 -0.092,0.059c-0.038,0.013 -0.08,0.02 -0.125,0.02c-0.051,0 -0.097,-0.007 -0.136,-0.022c-0.039,-0.015 -0.073,-0.034 -0.1,-0.058l0.08,-0.089c0.021,0.016 0.044,0.029 0.07,0.04c0.026,0.011 0.055,0.016 0.086,0.016Z" style="fill:#fff;fill-rule:nonzero;"/></g><g transform="matrix(821.941066,0,0,821.941066,1807.588009,696.298157)"><path d="M0.133,0.113l0.11,0.037l0.212,-0.451l0,-0.1l-0.212,-0.451l-0.11,0.038l0.164,0.463l-0.164,0.464Z" style="fill:#fff;fill-rule:nonzero;"/></g><g transform="matrix(821.941066,0,0,821.941066,2300.752649,696.298157)"></g></g></g></svg>